# xmcd
#
# Track frame offsets:
# 150
# 4502
# 22382
# 41470
# 66887
# 87620
# 112048
# 137767
# 171065
# 199451
# 218992
# 247880
# 265296
# 297419
#
# Disc length: 4315 seconds
#
#
# Revision: 0
# Processed by: cddbd v1.5.1PL2 Copyright (c) Steve Scherf et al.
# Submitted via: FreeRIP 2.944 
#
DISCID=d710d90e
DTITLE=Meir Ariel - Last Concert
DYEAR=1999
DGENRE=
TTITLE0=pticha
TTITLE1=pluga bakav (o legamry bemikre)
TTITLE2=sdot goldberg
TTITLE3=achshav lehitahev
TTITLE4=holech batel
TTITLE5=neshel hanachash
TTITLE6=avarnu et paro, naavor gam et ze
TTITLE7=rodef tzedek rodef shalom
TTITLE8=terminal luminelt
TTITLE9=hikansi kvar laoto venisaa
TTITLE10=shlal sharav
TTITLE11=eitan eitan
TTITLE12=layla shaket avar al kochoteinu besuetz
TTITLE13=tuk tuk tuk al daltey marom
EXTD=
EXTT0=
EXTT1=
EXTT2=
EXTT3=
EXTT4=
EXTT5=
EXTT6=
EXTT7=
EXTT8=
EXTT9=
EXTT10=
EXTT11=
EXTT12=
EXTT13=
PLAYORDER=
